<svg xmlns="http://www.w3.org/2000/svg" width="1200" height="630" viewBox="0 0 1000 800"><rect width="1000" height="800" fill="#d8ddd8"/><rect y="530" width="1000" height="270" fill="#bbc7bd"/><rect x="80" y="120" width="840" height="430" rx="8" fill="#e8ebe7"/><path d="M80 260h840M350 120v430M680 120v430" stroke="#a9b6af" stroke-width="12"/><g fill="#173d55"><circle cx="300" cy="340" r="70"/><path d="M175 600q25-190 125-190t125 190z"/><circle cx="520" cy="315" r="75"/><path d="M385 600q30-205 135-205t140 205z"/><circle cx="740" cy="350" r="66"/><path d="M620 600q20-175 120-175t120 175z"/></g><g fill="#6f9b82"><path d="M250 280h100l-18-45h-64z"/><path d="M468 250h110l-20-45h-72z"/><path d="M693 295h94l-17-42h-60z"/></g><text x="500" y="710" text-anchor="middle" font-family="sans-serif" font-size="28" fill="#173d55">PT GARDA KARYA NUSANTARA</text></svg>
